<?xml version="1.0" encoding="UTF-8" standalone="no"?>
<!DOCTYPE svg PUBLIC "-//W3C//DTD SVG 1.1//EN" "http://www.w3.org/Graphics/SVG/1.1/DTD/svg11.dtd">
<svg version="1.1" xmlns="http://www.w3.org/2000/svg" xmlns:xlink="http://www.w3.org/1999/xlink" preserveAspectRatio="xMidYMid meet" viewBox="0 0 1000 1000" width="1000" height="1000"><defs><path d="M179.55 302.16L482.69 301.47L785.83 300.78L634.88 568.09L483.91 835.42L331.72 568.8L179.55 302.16Z" id="a4YSLki5Dx"></path><clipPath id="clipa3mNJZilQb"><use xlink:href="#a4YSLki5Dx" opacity="1"></use></clipPath><path d="M511.92 483.86C513.03 482.51 515.39 479.89 519 475.98C520.97 474.05 536.69 458.62 538.66 456.69C548.08 447.08 558.05 432.98 568.53 414.4C586.17 383.17 594.85 351.99 600.34 317.96C605.82 283.93 568.84 269.4 548.65 275.62C535.2 279.78 517.16 286.61 504.2 301.94C488.62 301.94 363.97 301.94 348.39 301.94C349.92 300.75 350.88 300 351.25 299.69C399.36 261.94 450.52 228.23 504.2 198.95C504.2 198.95 504.2 198.95 504.2 198.95C518.86 191.77 536.21 184.43 556.25 176.92C587.97 166.59 614.73 162.21 636.54 163.8C669.26 166.19 717.77 206.91 718.79 242.47C719.81 278.04 704.74 306.37 691.19 331.62C663.25 383.7 599.03 442.83 498.5 509.03C494.06 511.05 491.1 511.73 489.63 511.12C487.41 510.22 492.28 507.69 511.92 483.86Z" id="hrWmPTe7a"></path><path d="M301.22 563.59C304.58 569.44 312.87 567.7 330.06 559.4C341.52 553.86 353.54 542.89 366.11 526.49C380.2 515.44 391.19 508.88 399.08 506.8C410.92 503.69 424.89 503 441.01 504.73C454.73 506.94 466.34 511.33 475.81 517.92C485.28 524.53 492.62 533.34 497.83 544.36C507.06 559.23 512.23 571.94 513.36 590.27C514.48 608.58 515.41 618.23 508.43 640C493.1 665.8 471.16 684.02 432.89 697.1C394.64 710.18 349.7 724.17 290.34 723.59C265.21 718.57 229.26 708.09 217.29 676.69C199.35 629.59 193.08 605.67 200.38 544.36C205.24 503.5 225.08 465.86 254.11 431.47C257.83 438.06 276.43 471.03 309.92 530.36C301.87 548.61 298.97 559.69 301.22 563.59Z" id="b3umTiSmD"></path><path d="" id="c2gF9Jvlba"></path><path d="" id="c2RCsygIpr"></path><path d="" id="b15aAUDOhN"></path></defs><g><g><g><use xlink:href="#a4YSLki5Dx" opacity="1" fill="#767676" fill-opacity="1"></use><g clip-path="url(#clipa3mNJZilQb)"><use xlink:href="#a4YSLki5Dx" opacity="1" fill-opacity="0" stroke="#000000" stroke-width="10" stroke-opacity="0.38"></use></g><g><filter id="shadow3748275" x="142.55" y="263.78" width="681.28" height="609.64" filterUnits="userSpaceOnUse" primitiveUnits="userSpaceOnUse"><feFlood></feFlood><feComposite in2="SourceAlpha" operator="out"></feComposite><feGaussianBlur stdDeviation="3.87"></feGaussianBlur><feOffset dx="1" dy="1" result="afterOffset"></feOffset><feFlood flood-color="#000000" flood-opacity="0.39"></feFlood><feComposite in2="afterOffset" operator="in"></feComposite><feMorphology operator="dilate" radius="1"></feMorphology><feComposite in2="SourceAlpha" operator="in"></feComposite></filter><path d="M179.55 302.16L482.69 301.47L785.83 300.78L634.88 568.09L483.91 835.42L331.72 568.8L179.55 302.16Z" id="d4MTfhVhY5" fill="white" fill-opacity="1" filter="url(#shadow3748275)"></path></g></g><g><use xlink:href="#hrWmPTe7a" opacity="1" fill="#f89ce8" fill-opacity="1"></use></g><g><use xlink:href="#b3umTiSmD" opacity="1" fill="#f89ce8" fill-opacity="1"></use><g><use xlink:href="#b3umTiSmD" opacity="1" fill-opacity="0" stroke="#000000" stroke-width="1" stroke-opacity="0"></use></g></g><g><g><use xlink:href="#c2gF9Jvlba" opacity="1" fill-opacity="0" stroke="#000000" stroke-width="50" stroke-opacity="0"></use></g></g><g><g><use xlink:href="#c2RCsygIpr" opacity="1" fill-opacity="0" stroke="#000000" stroke-width="50" stroke-opacity="0"></use></g></g><g><g><use xlink:href="#b15aAUDOhN" opacity="1" fill-opacity="0" stroke="#411a1a" stroke-width="1" stroke-opacity="0"></use></g></g></g></g></svg>